<svg width="50" height="50" viewBox="0 0 50 50" fill="none" xmlns="http://www.w3.org/2000/svg">
<path d="M25.0569 4.00452C25.0139 4.01233 24.971 4.02405 24.9319 4.03577C24.4671 4.14124 24.1389 4.55921 24.1507 5.03577V11.0358C24.1467 11.3951 24.3342 11.7311 24.6467 11.9147C24.9592 12.0944 25.3421 12.0944 25.6546 11.9147C25.9671 11.7311 26.1546 11.3951 26.1506 11.0358V5.03577C26.1624 4.74671 26.0452 4.46936 25.8381 4.27405C25.6272 4.07483 25.3421 3.97718 25.0569 4.00452ZM39.1819 9.87952C38.9553 9.91077 38.7444 10.024 38.5882 10.192L34.3382 14.442C34.0413 14.6842 33.9046 15.0709 33.9905 15.4459C34.0764 15.817 34.3694 16.11 34.7405 16.1959C35.1155 16.2819 35.5022 16.1451 35.7444 15.8483L39.9944 11.5983C40.3069 11.3014 40.3967 10.8365 40.2132 10.4459C40.0257 10.0514 39.6116 9.82484 39.1819 9.87952ZM25.1507 15.0358C19.635 15.0358 15.1507 19.5201 15.1507 25.0358C15.1507 30.5514 19.635 35.0358 25.1507 35.0358C30.6663 35.0358 35.1507 30.5514 35.1507 25.0358C35.1507 19.5201 30.6663 15.0358 25.1507 15.0358ZM4.86941 24.0358C4.31862 24.1139 3.93191 24.6256 4.01004 25.1764C4.08817 25.7272 4.59987 26.1139 5.15067 26.0358H11.1507C11.51 26.0397 11.846 25.8522 12.0296 25.5397C12.2093 25.2272 12.2093 24.8444 12.0296 24.5319C11.846 24.2194 11.51 24.0319 11.1507 24.0358H5.15067C5.11942 24.0358 5.08817 24.0358 5.05692 24.0358C5.02567 24.0358 4.99442 24.0358 4.96317 24.0358C4.93192 24.0358 4.90066 24.0358 4.86941 24.0358ZM38.8694 24.0358C38.3186 24.1139 37.9319 24.6256 38.01 25.1764C38.0882 25.7272 38.5999 26.1139 39.1507 26.0358H45.1507C45.51 26.0397 45.846 25.8522 46.0296 25.5397C46.2093 25.2272 46.2093 24.8444 46.0296 24.5319C45.846 24.2194 45.51 24.0319 45.1507 24.0358H39.1507C39.1194 24.0358 39.0882 24.0358 39.0569 24.0358C39.0257 24.0358 38.9944 24.0358 38.9632 24.0358C38.9319 24.0358 38.9007 24.0358 38.8694 24.0358ZM15.1507 33.9108C14.9241 33.942 14.7132 34.0553 14.5569 34.2233L10.3069 38.4733C10.01 38.7155 9.87332 39.1022 9.95925 39.4772C10.0452 39.8483 10.3382 40.1412 10.7092 40.2272C11.0842 40.3131 11.471 40.1764 11.7132 39.8795L15.9632 35.6295C16.26 35.3444 16.3499 34.903 16.1897 34.524C16.0335 34.1451 15.6546 33.903 15.2444 33.9108C15.2132 33.9108 15.1819 33.9108 15.1507 33.9108ZM34.8382 33.9108C34.4632 33.9772 34.1624 34.2506 34.0569 34.6139C33.9514 34.9811 34.0608 35.3717 34.3382 35.6295L38.5882 39.8795C38.8303 40.1764 39.2171 40.3131 39.5921 40.2272C39.9632 40.1412 40.2561 39.8483 40.3421 39.4772C40.428 39.1022 40.2913 38.7155 39.9944 38.4733L35.7444 34.2233C35.5569 34.0241 35.2991 33.9147 35.0257 33.9108C34.9944 33.9108 34.9632 33.9108 34.9319 33.9108C34.9007 33.9108 34.8694 33.9108 34.8382 33.9108ZM25.0569 38.0045C25.0139 38.0123 24.971 38.024 24.9319 38.0358C24.4671 38.1412 24.1389 38.5592 24.1507 39.0358V45.0358C24.1467 45.3951 24.3342 45.7311 24.6467 45.9147C24.9592 46.0944 25.3421 46.0944 25.6546 45.9147C25.9671 45.7311 26.1546 45.3951 26.1506 45.0358V39.0358C26.1624 38.7467 26.0452 38.4694 25.8381 38.274C25.6272 38.0748 25.3421 37.9772 25.0569 38.0045Z" fill="white"/>
</svg>
