<svg width="50" height="50" viewBox="0 0 50 50" fill="none" xmlns="http://www.w3.org/2000/svg">
<path d="M24.9063 3.96875C24.8633 3.97656 24.8203 3.98828 24.7813 4C24.3164 4.10547 23.9883 4.52344 24 5V11C23.9961 11.3594 24.1836 11.6953 24.4961 11.8789C24.8086 12.0586 25.1914 12.0586 25.5039 11.8789C25.8164 11.6953 26.0039 11.3594 26 11V5C26.0117 4.71094 25.8945 4.43359 25.6875 4.23828C25.4766 4.03906 25.1914 3.94141 24.9063 3.96875ZM39.0312 9.84375C38.8047 9.875 38.5938 9.98828 38.4375 10.1562L34.1875 14.4062C33.8906 14.6484 33.7539 15.0352 33.8398 15.4102C33.9258 15.7812 34.2188 16.0742 34.5898 16.1602C34.9648 16.2461 35.3516 16.1094 35.5938 15.8125L39.8438 11.5625C40.1562 11.2656 40.2461 10.8008 40.0625 10.4102C39.875 10.0156 39.4609 9.78907 39.0312 9.84375ZM25 15C19.4844 15 15 19.4844 15 25C15 30.5156 19.4844 35 25 35C30.5156 35 35 30.5156 35 25C35 19.4844 30.5156 15 25 15ZM38.7188 24C38.168 24.0781 37.7812 24.5898 37.8594 25.1406C37.9375 25.6914 38.4492 26.0781 39 26H45C45.3594 26.0039 45.6953 25.8164 45.8789 25.5039C46.0586 25.1914 46.0586 24.8086 45.8789 24.4961C45.6953 24.1836 45.3594 23.9961 45 24H39C38.9688 24 38.9375 24 38.9063 24C38.875 24 38.8438 24 38.8125 24C38.7813 24 38.75 24 38.7188 24Z" fill="white"/>
</svg>
