<svg width="50" height="50" viewBox="0 0 50 50" fill="none" xmlns="http://www.w3.org/2000/svg">
<path d="M24.9063 3.96875C24.8633 3.97656 24.8203 3.98828 24.7813 4C24.3164 4.10547 23.9883 4.52344 24 5V11C23.9961 11.3594 24.1836 11.6953 24.4961 11.8789C24.8086 12.0586 25.1914 12.0586 25.5039 11.8789C25.8164 11.6953 26.0039 11.3594 26 11V5C26.0117 4.71094 25.8945 4.43359 25.6875 4.23828C25.4766 4.03906 25.1914 3.94141 24.9063 3.96875ZM10.6563 9.84375C10.2813 9.91016 9.98049 10.1836 9.87502 10.5469C9.76955 10.9141 9.87893 11.3047 10.1563 11.5625L14.4063 15.8125C14.6485 16.1094 15.0352 16.2461 15.4102 16.1602C15.7813 16.0742 16.0742 15.7813 16.1602 15.4102C16.2461 15.0352 16.1094 14.6484 15.8125 14.4063L11.5625 10.1563C11.3555 9.9336 11.0547 9.82032 10.75 9.84376C10.7188 9.84376 10.6875 9.84375 10.6563 9.84375ZM39.0313 9.84375C38.8047 9.875 38.5938 9.98828 38.4375 10.1562L34.1875 14.4062C33.8907 14.6484 33.7539 15.0352 33.8399 15.4102C33.9258 15.7812 34.2188 16.0742 34.5899 16.1602C34.9649 16.2461 35.3516 16.1094 35.5938 15.8125L39.8438 11.5625C40.1563 11.2656 40.2461 10.8008 40.0625 10.4102C39.875 10.0156 39.461 9.78907 39.0313 9.84375ZM25 15C19.4844 15 15 19.4844 15 25C15 30.5156 19.4844 35 25 35C30.5157 35 35 30.5156 35 25C35 19.4844 30.5157 15 25 15ZM4.71877 24C4.16799 24.0781 3.78127 24.5898 3.8594 25.1406C3.93753 25.6914 4.44924 26.0781 5.00003 26H11C11.3594 26.0039 11.6953 25.8164 11.8789 25.5039C12.0586 25.1914 12.0586 24.8086 11.8789 24.4961C11.6953 24.1836 11.3594 23.9961 11 24H5.00003C4.96878 24 4.93753 24 4.90628 24C4.87503 24 4.84378 24 4.81253 24C4.78128 24 4.75002 24 4.71877 24ZM38.7188 24C38.168 24.0781 37.7813 24.5898 37.8594 25.1406C37.9375 25.6914 38.4492 26.0781 39 26H45C45.3594 26.0039 45.6953 25.8164 45.8789 25.5039C46.0586 25.1914 46.0586 24.8086 45.8789 24.4961C45.6954 24.1836 45.3594 23.9961 45 24H39C38.9688 24 38.9375 24 38.9063 24C38.875 24 38.8438 24 38.8125 24C38.7813 24 38.75 24 38.7188 24ZM15 33.875C14.7735 33.9062 14.5625 34.0195 14.4063 34.1875L10.1563 38.4375C9.8594 38.6797 9.72268 39.0664 9.80861 39.4414C9.89455 39.8125 10.1875 40.1055 10.5586 40.1914C10.9336 40.2774 11.3203 40.1406 11.5625 39.8438L15.8125 35.5938C16.1094 35.3086 16.1992 34.8672 16.0391 34.4883C15.8828 34.1094 15.5039 33.8672 15.0938 33.875C15.0625 33.875 15.0313 33.875 15 33.875ZM34.6875 33.875C34.3125 33.9414 34.0117 34.2148 33.9063 34.5781C33.8008 34.9453 33.9102 35.3359 34.1875 35.5938L38.4375 39.8438C38.6797 40.1406 39.0664 40.2774 39.4414 40.1914C39.8125 40.1055 40.1055 39.8125 40.1914 39.4414C40.2774 39.0664 40.1406 38.6797 39.8438 38.4375L35.5938 34.1875C35.4063 33.9883 35.1485 33.8789 34.875 33.875C34.8438 33.875 34.8125 33.875 34.7813 33.875C34.75 33.875 34.7188 33.875 34.6875 33.875ZM24.9063 37.9688C24.8633 37.9766 24.8203 37.9883 24.7813 38C24.3164 38.1055 23.9883 38.5234 24 39V45C23.9961 45.3594 24.1836 45.6953 24.4961 45.8789C24.8086 46.0586 25.1914 46.0586 25.5039 45.8789C25.8164 45.6953 26.0039 45.3594 26 45V39C26.0117 38.7109 25.8945 38.4336 25.6875 38.2383C25.4766 38.0391 25.1914 37.9414 24.9063 37.9688Z" fill="white"/>
</svg>
