<svg width="50" height="50" viewBox="0 0 50 50" fill="none" xmlns="http://www.w3.org/2000/svg">
<path d="M25.0569 5.00452C25.0139 5.01233 24.9709 5.02405 24.9319 5.03577C24.467 5.14124 24.1389 5.55921 24.1506 6.03577V12.0358C24.1467 12.3951 24.3342 12.7311 24.6467 12.9147C24.9592 13.0944 25.342 13.0944 25.6545 12.9147C25.967 12.7311 26.1545 12.3951 26.1506 12.0358V6.03577C26.1623 5.74671 26.0452 5.46936 25.8381 5.27405C25.6272 5.07483 25.342 4.97718 25.0569 5.00452ZM25.1506 16.0358C19.635 16.0358 15.1506 20.5201 15.1506 26.0358C15.1506 31.5514 19.635 36.0358 25.1506 36.0358C30.6663 36.0358 35.1506 31.5514 35.1506 26.0358C35.1506 20.5201 30.6663 16.0358 25.1506 16.0358Z" fill="black"/>
</svg>
