<svg width="120" height="120" viewBox="0 0 120 120" fill="none" xmlns="http://www.w3.org/2000/svg">
<path d="M85.1368 106.08C88.5518 106.08 91.0127 103.569 91.0127 100.204V20.0976C91.0127 16.7327 88.5518 13.9202 85.0363 13.9202C82.5754 13.9202 80.9179 15.0251 78.2561 17.5363L56.1077 38.4793C55.7561 38.7808 55.3041 38.9314 54.8018 38.9314H39.8856C32.8041 38.9314 28.9873 42.7984 28.9873 50.3321V69.8186C28.9873 77.3522 32.8041 81.2194 39.8856 81.2194H54.8018C55.3041 81.2194 55.7561 81.3699 56.1077 81.6714L78.2561 102.815C80.6668 105.075 82.6757 106.08 85.1368 106.08Z" fill="white"/>
</svg>
